<mxfile host="app.diagrams.net" modified="2022-10-21T16:39:46.983Z" agent="5.0 (Windows NT 10.0; Win64; x64) AppleWebKit/537.36 (KHTML, like Gecko) Chrome/106.0.0.0 Safari/537.36" etag="y7naReJKpwug4xpwEDk7" version="20.5.0" type="github">
  <diagram id="ME_5Fv0iitvOG-Ge-91V" name="Page-1">
    <mxGraphModel dx="782" dy="436" grid="1" gridSize="10" guides="1" tooltips="1" connect="1" arrows="1" fold="1" page="1" pageScale="1" pageWidth="850" pageHeight="1100" math="0" shadow="0">
      <root>
        <mxCell id="0" />
        <mxCell id="1" parent="0" />
        <mxCell id="XEJ2XPrYLcr-EgvQN0Tq-1" value="admin&lt;br&gt;Inmda&amp;amp;123$" style="aspect=fixed;html=1;points=[];align=center;image;fontSize=12;image=img/lib/azure2/databases/SQL_Server.svg;" vertex="1" parent="1">
          <mxGeometry x="100" y="160" width="68" height="68" as="geometry" />
        </mxCell>
        <mxCell id="XEJ2XPrYLcr-EgvQN0Tq-2" value="" style="aspect=fixed;html=1;points=[];align=center;image;fontSize=12;image=img/lib/azure2/databases/SQL_Database.svg;" vertex="1" parent="1">
          <mxGeometry x="80" y="410" width="48" height="64" as="geometry" />
        </mxCell>
      </root>
    </mxGraphModel>
  </diagram>
</mxfile>
